<svg width="132" height="101" viewBox="0 0 132 101" fill="currentColor" xmlns="http://www.w3.org/2000/svg">
<path d="M111.689 8.39345C103.328 4.48071 94.2768 1.64083 84.8479 0C84.6821 0.00237102 84.524 0.0704216 84.4079 0.189327C83.2765 2.27191 81.9564 4.98558 81.0764 7.06817C71.0755 5.55451 60.9051 5.55451 50.9041 7.06817C50.0241 4.92247 48.7041 2.27191 47.5098 0.189327C47.4469 0.06311 47.2583 0 47.0698 0C37.6409 1.64083 28.6521 4.48071 20.229 8.39345C20.1662 8.39345 20.1033 8.45656 20.0404 8.51967C2.94283 34.2049 -1.77159 59.1959 0.55419 83.9345C0.55419 84.0607 0.617048 84.187 0.742766 84.2501C12.0574 92.5804 22.9319 97.6291 33.6808 100.974C33.8694 101.037 34.058 100.974 34.1208 100.848C36.6352 97.3767 38.8981 93.7164 40.8467 89.8667C40.9724 89.6143 40.8467 89.3619 40.5953 89.2987C37.0123 87.9104 33.618 86.2695 30.2864 84.3763C30.035 84.2501 30.035 83.8714 30.2236 83.6821C30.915 83.1772 31.6065 82.6092 32.2979 82.1044C32.4236 81.9781 32.6122 81.9781 32.7379 82.0413C54.3614 91.9493 77.682 91.9493 99.054 82.0413C99.1798 81.9781 99.3683 81.9781 99.494 82.1044C100.185 82.6723 100.877 83.1772 101.568 83.7452C101.82 83.9345 101.82 84.3132 101.506 84.4394C98.2369 86.3957 94.7796 87.9735 91.1967 89.3619C90.9452 89.425 90.8824 89.7405 90.9452 89.9298C92.9567 93.7795 95.2197 97.4398 97.6711 100.911C97.8597 100.974 98.0483 101.037 98.2369 100.974C109.049 97.6291 119.923 92.5804 131.238 84.2501C131.363 84.187 131.426 84.0607 131.426 83.9345C134.192 55.3463 126.838 30.5446 111.94 8.51967C111.877 8.45656 111.814 8.39345 111.689 8.39345ZM44.1154 68.8515C37.6409 68.8515 32.2351 62.8562 32.2351 55.4725C32.2351 48.0888 37.5152 42.0935 44.1154 42.0935C50.7784 42.0935 56.0586 48.1519 55.9957 55.4725C55.9957 62.8562 50.7156 68.8515 44.1154 68.8515ZM87.928 68.8515C81.4536 68.8515 76.0477 62.8562 76.0477 55.4725C76.0477 48.0888 81.3278 42.0935 87.928 42.0935C94.5911 42.0935 99.8712 48.1519 99.8083 55.4725C99.8083 62.8562 94.5911 68.8515 87.928 68.8515Z" fill="currentColor"/>
</svg>
