<svg width="262" height="262" viewBox="0 0 262 262" fill="currentColor" xmlns="http://www.w3.org/2000/svg">
<path d="M181.107 98.25H163.75V43.6667C163.75 37.6625 158.837 32.75 152.833 32.75H109.166C103.162 32.75 98.2497 37.6625 98.2497 43.6667V98.25H80.8922C71.1763 98.25 66.2638 110.04 73.1413 116.917L123.249 167.025C127.506 171.282 134.384 171.282 138.641 167.025L188.749 116.917C195.626 110.04 190.823 98.25 181.107 98.25ZM54.583 207.417C54.583 213.421 59.4955 218.333 65.4997 218.333H196.5C202.504 218.333 207.416 213.421 207.416 207.417C207.416 201.412 202.504 196.5 196.5 196.5H65.4997C59.4955 196.5 54.583 201.412 54.583 207.417Z" fill="currentColor"/>
</svg>
