<svg width="101" height="101" viewBox="0 0 101 101" fill="currentColor" xmlns="http://www.w3.org/2000/svg">
<path d="M29.29 0H71.71C87.87 0 101 13.13 101 29.29V71.71C101 79.4782 97.9141 86.9282 92.4212 92.4212C86.9282 97.9141 79.4782 101 71.71 101H29.29C13.13 101 0 87.87 0 71.71V29.29C0 21.5218 3.0859 14.0718 8.57884 8.57884C14.0718 3.0859 21.5218 0 29.29 0ZM28.28 10.1C23.4584 10.1 18.8342 12.0154 15.4248 15.4248C12.0154 18.8342 10.1 23.4584 10.1 28.28V72.72C10.1 82.7695 18.2305 90.9 28.28 90.9H72.72C77.5416 90.9 82.1658 88.9846 85.5752 85.5752C88.9846 82.1658 90.9 77.5416 90.9 72.72V28.28C90.9 18.2305 82.7695 10.1 72.72 10.1H28.28ZM77.0125 17.675C78.6867 17.675 80.2923 18.3401 81.4761 19.5239C82.6599 20.7077 83.325 22.3133 83.325 23.9875C83.325 25.6617 82.6599 27.2673 81.4761 28.4511C80.2923 29.6349 78.6867 30.3 77.0125 30.3C75.3383 30.3 73.7327 29.6349 72.5489 28.4511C71.3651 27.2673 70.7 25.6617 70.7 23.9875C70.7 22.3133 71.3651 20.7077 72.5489 19.5239C73.7327 18.3401 75.3383 17.675 77.0125 17.675ZM50.5 25.25C57.1967 25.25 63.6192 27.9103 68.3544 32.6456C73.0897 37.3808 75.75 43.8033 75.75 50.5C75.75 57.1967 73.0897 63.6192 68.3544 68.3544C63.6192 73.0897 57.1967 75.75 50.5 75.75C43.8033 75.75 37.3808 73.0897 32.6456 68.3544C27.9103 63.6192 25.25 57.1967 25.25 50.5C25.25 43.8033 27.9103 37.3808 32.6456 32.6456C37.3808 27.9103 43.8033 25.25 50.5 25.25ZM50.5 35.35C46.482 35.35 42.6285 36.9462 39.7873 39.7873C36.9462 42.6285 35.35 46.482 35.35 50.5C35.35 54.518 36.9462 58.3715 39.7873 61.2127C42.6285 64.0538 46.482 65.65 50.5 65.65C54.518 65.65 58.3715 64.0538 61.2127 61.2127C64.0538 58.3715 65.65 54.518 65.65 50.5C65.65 46.482 64.0538 42.6285 61.2127 39.7873C58.3715 36.9462 54.518 35.35 50.5 35.35Z" fill="currentColor"/>
</svg>
