<svg width="190" height="190" viewBox="0 0 190 190" fill="currentColor" xmlns="http://www.w3.org/2000/svg">
<path d="M175.646 108.459H108.458V175.646C108.458 179.21 107.042 182.628 104.522 185.148C102.002 187.668 98.5844 189.083 95.0205 189.083C91.4567 189.083 88.0388 187.668 85.5188 185.148C82.9987 182.628 81.583 179.21 81.583 175.646V108.459H14.3955C10.8317 108.459 7.41378 107.043 4.89376 104.523C2.37374 102.003 0.958008 98.5848 0.958008 95.021C0.958008 91.4572 2.37374 88.0393 4.89376 85.5193C7.41378 82.9992 10.8317 81.5835 14.3955 81.5835H81.583V14.396C81.583 10.8322 82.9987 7.41427 85.5188 4.89425C88.0388 2.37422 91.4567 0.958496 95.0205 0.958496C98.5844 0.958496 102.002 2.37422 104.522 4.89425C107.042 7.41427 108.458 10.8322 108.458 14.396V81.5835H175.646C179.209 81.5835 182.627 82.9992 185.147 85.5193C187.667 88.0393 189.083 91.4572 189.083 95.021C189.083 98.5848 187.667 102.003 185.147 104.523C182.627 107.043 179.209 108.459 175.646 108.459Z" fill="currentColor"/>
</svg>
