<svg width="90" height="101" viewBox="0 0 90 101" fill="currentColor" xmlns="http://www.w3.org/2000/svg">
<path d="M71.4031 15.8233C67.4804 11.444 65.3183 5.82096 65.3189 0H47.5829V69.5778C47.449 73.3439 45.8238 76.9119 43.0502 79.5291C40.2767 82.1462 36.5717 83.6078 32.7168 83.6056C24.5663 83.6056 17.7934 77.0967 17.7934 69.0167C17.7934 59.3656 27.3214 52.1272 37.1365 55.1011V37.37C17.3342 34.7889 0 49.8267 0 69.0167C0 87.7017 15.8418 101 32.6594 101C50.6824 101 65.3189 86.6917 65.3189 69.0167V33.7228C72.5108 38.7719 81.1456 41.481 90 41.4661V24.1278C90 24.1278 79.2092 24.6328 71.4031 15.8233Z" fill="currentColor"/>
</svg>
