<svg width="139" height="101" viewBox="0 0 139 101" fill="currentColor" xmlns="http://www.w3.org/2000/svg">
<path d="M55.6 72.1429L91.6705 50.5L55.6 28.8571V72.1429ZM135.942 15.655C136.845 19.0457 137.471 23.5907 137.888 29.3621C138.374 35.1336 138.583 40.1114 138.583 44.44L139 50.5C139 66.2993 137.888 77.9143 135.942 85.345C134.204 91.8379 130.173 96.0221 123.918 97.8257C120.652 98.7636 114.675 99.4129 105.501 99.8457C96.466 100.351 88.1955 100.567 80.5505 100.567L69.5 101C40.3795 101 22.24 99.8457 15.0815 97.8257C8.8265 96.0221 4.7955 91.8379 3.058 85.345C2.1545 81.9543 1.529 77.4093 1.112 71.6379C0.625501 65.8664 0.417 60.8886 0.417 56.56L0 50.5C0 34.7007 1.112 23.0857 3.058 15.655C4.7955 9.16214 8.8265 4.97786 15.0815 3.17429C18.348 2.23643 24.325 1.58714 33.499 1.15428C42.534 0.649285 50.8045 0.432857 58.4495 0.432857L69.5 0C98.6205 0 116.76 1.15429 123.918 3.17429C130.173 4.97786 134.204 9.16214 135.942 15.655Z" fill="currentColor"/>
</svg>
